<svg width="360" height="360" xmlns="http://www.w3.org/2000/svg" version="1.1" xml:space="preserve">
 <metadata id="metadata8">image/svg+xml</metadata>

 <g class="layer" stroke="#000000" fill="#000000">
 
 <g id="g10" transform="matrix(1.33333 0 0 -1.33333 0 1122.52)"><g id="g12">
 <path d="m152.49198,613.00003c0,-0.5531 0.2752,-0.7311 0.5182,-1.1654c0.5286,-0.945 1.0343,-3.9186 1.1602,-4.3103l0.9323,-3.5566c0.3589,-1.2133 0.195,-1.0347 0.195,-2.6105c-1.2725,0.2962 -4.8237,3.617 -6.294,4.7877l-1.298,1.0868c-0.0627,0.0579 -0.1369,0.1217 -0.2217,0.199c-1.3252,1.2121 -3.2148,2.952 -3.689,4.7277c-0.7687,-0.1792 -0.7138,-0.4286 -1.8193,-0.4252c-2.582,0.008 -1.7166,-0.18 -1.6914,-4.0675l0.8442,-13.4637c-0.0338,-2.5018 0.7273,-1.2849 0.9566,-2.6906c0.4221,-2.5898 -0.843,-6.2859 1.1486,-6.2859c3.4036,0 2.42,0.9267 1.857,3.2596c-0.21,0.8708 -0.4459,5.9326 -0.4501,6.9843l-0.5069,4.1131c-0.0513,0.4504 -0.0286,0.7735 -0.0626,1.2092c-0.0397,0.5086 -0.1786,0.6472 -0.2415,1.0208c-0.0697,0.4152 -0.0006,0.7772 -0.0692,1.1936c-0.0555,0.3374 -0.246,0.5879 -0.246,1.0163c0,0.6244 0.265,0.4631 0.2885,1.3949c0.0139,0.5474 -0.008,1.1378 -0.008,1.6911l9.4312,-7.963c0.6032,-0.5698 1.8014,-1.0395 2.531,-1.8173c0.8688,-0.9264 0.9754,-3.3035 1.3249,-5.1279c0.1494,-0.7798 0.3699,-1.065 0.4533,-1.7912c0.3041,-2.655 0.002,-3.714 3.2567,-2.6822c1.7042,0.5403 0.9026,1.4432 0.5054,2.7973c-0.5935,2.0248 -0.6176,1.7101 -0.9929,3.636l-1.2915,5.5819c-0.781,2.9753 -1.3159,3.4164 -2.0444,7.0736c-0.1227,0.6163 -0.1879,1.2184 -0.3268,1.9179c-0.0751,0.3788 -0.1587,0.5738 -0.2446,0.8776l-0.4008,3.1057c-0.1012,0.8215 -0.1148,0.2523 -0.5658,1.0865l-0.133,0.3192c-0.212,-0.005 -2.8057,-0.5423 -2.8057,-1.1225" fill-rule="evenodd" id="path14"></path><path d="m119.94798,609.49323c0,-2.1764 -1.1013,-3.8273 -1.4094,-4.9031c-0.2401,-0.8384 -0.1315,-3.2731 -0.2809,-4.0563l-1.1154,-9.9777c-0.0579,-2.1586 -0.4207,-1.1974 -0.4207,-4.068c0,-0.3373 0.2273,-0.4124 0.4209,-0.7016c1.1339,0 1.8434,-0.0303 2.8055,-0.1403c1.2197,-0.1392 4.5564,-0.2296 5.3254,-0.5661c0.9272,-0.4053 2.6295,-0.3566 3.6777,-0.301c0.2838,0.0147 0.362,-0.007 0.5973,-0.0122l6.1106,0.0377c0,2.8689 0.1216,2.8108 -2.861,2.2963c-0.7435,-0.1284 -1.2946,0.0292 -2.0358,0.1012c-2.2306,0.2175 -3.5952,0.1103 -6.2862,0.4473l-3.8267,0.3816c-0.3918,0.8164 -0.2427,1.048 -0.0757,2.0392l0.4652,4.7254c0.3937,1.6452 0.1717,1.2923 0.1717,2.213l0.4808,4.0079c0.1332,0.921 -0.0105,3.8478 0.7815,3.8478c0.8144,0 1.5681,-0.4924 2.4406,-0.6458c0.79,-0.1386 1.9866,-0.2775 2.8517,-0.1579c0.8969,0.1242 1.9519,0.0204 2.9659,0.1202c1.5429,0.1517 1.1659,0.2353 1.8419,1.2444c-0.7979,0.5341 -0.428,0.618 -1.6996,0.8255c-1.2447,0.2029 -2.374,0.5261 -3.5501,0.5397c-0.4896,0.006 -0.3478,0.093 -0.7935,0.157c-0.4079,0.0584 -0.852,-0.0161 -1.2529,0.0289l-2.3728,0.1568c-0.5202,0.0717 -0.2903,0.1142 -0.7115,0.3963l0.4206,1.9638c0.54,0.0448 0.561,0.1939 1.2365,0.1256l8.1417,-0.5669c0.4972,-0.0553 0.72,-0.1199 1.4232,-0.1199c0,3.0299 0.1219,2.4837 -2.4653,2.8661c-0.8713,0.129 -0.968,0.0587 -1.6463,-0.0275c-0.665,-0.0848 -0.9757,0.1117 -1.7754,0.112l-6.8782,0.2758c-0.4366,-0.652 -0.6163,-0.7818 -0.7487,-1.9216c-0.079,-0.6821 0.0474,-0.2634 0.0474,-0.7436" fill-rule="evenodd" id="path16">
 </path><path d="m169.60588,617.90963c0.8577,-1.2807 0.7256,-0.794 1.692,-2.5161l3.7598,-9.286c0.5505,-1.3887 0.2883,-0.5782 0.7663,-1.3379c0.7543,-1.1994 2.0264,-4.5842 2.4497,-6.2473c0.2145,-0.8436 0.2914,-1.3969 0.6366,-2.0285c0.1959,-0.3583 0.0817,-0.0198 0.1848,-0.3764c0.2563,-0.8853 -0.2182,0.0558 0.5834,-1.6611c0.6248,-1.3374 2.4494,0.0195 3.13,0.2911c1.6651,0.6647 2.778,1.3122 4.4334,2.0197c0.7639,0.326 1.518,0.6131 2.2042,1.0219c1.0358,0.6165 4.3614,2.3286 5.1092,2.8865l1.4916,0.8932c0.9249,0.4663 1.2002,0.6177 1.3337,1.1914c-0.3237,0.4833 -0.9876,0.6437 -1.2626,1.8232c-0.7316,-0.0161 -1.0584,-0.5264 -2.0664,-1.4402c-0.6735,-0.6101 -1.359,-0.8348 -2.329,-1.3182l-4.9566,-2.478c-5.4148,-2.7295 -3.7778,-2.2569 -6.3499,2.2995l-2.1294,5.0249c-0.1814,0.4264 -0.2838,0.4703 -0.4861,0.9165l-1.7825,3.9691c-0.1684,0.4467 -0.1871,0.7596 -0.3804,1.1627c0.5857,0.0488 3.2057,1.4893 3.9728,1.9188c1.925,1.0774 2.3624,1.173 4.0297,2.0024c0.4295,0.2134 0.8867,0.4978 0.917,0.985c0.0323,0.5111 -0.3827,1.031 -0.5029,1.5463c-0.8642,-0.0192 -3.8922,-1.8408 -5.3484,-2.5069c-0.3517,-0.161 -0.2653,-0.1307 -0.5527,-0.2929l-0.7844,-0.3557c-1.6163,-0.6676 -0.3245,-0.7722 -3.274,-0.7722c-0.1474,1.772 -1.254,1.3788 0.5528,2.5331c0.6392,0.4085 0.4643,0.3776 1.2895,0.6746c1.6132,0.5811 5.1627,2.5061 6.4936,3.0453c0.6363,0.2577 0.8203,0.3206 1.2027,0.7608c-0.256,1.0996 -1.669,2.103 -3.2794,1.3161c-1.5588,-0.7616 -1.8051,-1.4221 -5.2373,-2.8992l-3.7528,-1.7181c-0.6072,-0.398 -1.1843,-0.663 -1.758,-1.0474" fill-rule="evenodd" id="path18"></path><path d="m42.37508,626.88753c0.2211,-0.33 0.4464,-0.5117 0.701,-0.8422l5.5905,-5.7716c1.2166,-0.9709 2.1787,-2.0668 3.2825,-3.1706c3.0798,-3.0798 3.1958,-3.9228 4.7701,-2.3156c0.3923,0.4002 0.8895,0.6194 0.9459,1.2985c-0.7457,0.3581 -1.1525,0.2648 -1.7923,0.8728l-1.4712,1.3346c-1.0621,1.0678 -7.139,6.7297 -7.6374,7.6666c-0.5116,0.9615 0.7784,1.5375 1.4704,2.2223l2.8709,2.74c0.813,0.8323 0.5669,0.3691 1.1959,0.9079l3.3645,2.9481c0.0672,0.0646 2.9877,2.3493 3.2618,2.3493c0.6233,0 1.8618,-1.686 2.6274,-2.4227l1.3836,-1.2813c0.544,-0.5454 2.5676,-2.7488 3.0028,-2.7488c0.6525,0 0.697,0.005 0.8827,0.6605c0.443,1.5667 0.356,1.3343 -1.1291,3.0206c-1.8017,2.0458 -1.7915,1.2217 -3.5042,2.9492c-0.676,0.6817 -1.4397,0.8889 -1.4397,1.7864c0,0.4317 0.9451,1.4025 2.1042,1.4025c0.8697,0 6.6333,-7.1537 7.7153,-7.1537c0.3702,0 0.6047,0.3951 0.726,0.6763c0.1324,0.3061 0.0609,0.203 0.1658,0.5357l0.2305,0.6115l-1.0129,1.2316c-0.7333,0.8592 -0.752,0.449 -1.1727,1.0718c-0.8433,1.2487 -0.5479,0.4813 -1.1205,1.1239c-0.5182,0.5814 -0.328,0.6577 -1.0434,1.2008l-1.2314,1.1534c-0.0198,0.021 -0.0462,0.053 -0.066,0.0743l-0.6991,0.7038c-1.2982,1.2286 -0.1527,0.4003 -2.1027,1.825c-1.1642,0.8501 -1.7246,-0.0196 -2.1166,-0.7651c-0.485,-0.9218 -5.042,-4.0249 -6.3034,-5.1996l-8.2474,-6.762c-0.3751,-0.2401 -0.2985,-0.1214 -0.6616,-0.4607c-0.4417,-0.4127 -0.813,-0.7197 -1.2632,-1.1216c-0.7168,-0.6409 -2.0469,-1.3638 -2.277,-2.3519" fill-rule="evenodd" id="path20"></path><path d="m200.04568,636.98733c0,-0.089 1.4984,-1.5715 1.7459,-1.9015c0.5831,-0.7781 1.0068,-1.4193 1.5636,-2.2238l4.714,-8.3315c1.0108,-1.2198 0.8886,-0.5607 1.6387,-2.149l1.1812,-2.6064c0.1667,-0.4258 0.4297,-1.0602 0.519,-1.4446l-3.3301,2.4214c-0.5953,0.5819 -0.665,0.3659 -1.2201,0.7435c-0.4498,0.3059 -0.0175,0.2305 -1.1055,0.8586c-0.8937,0.5162 -1.1982,0.9516 -2.3884,1.5389c-0.8204,0.4048 -0.5089,0.3306 -0.9542,0.7294c-0.0215,0.0193 -0.0527,0.0468 -0.0754,0.0649l-1.2682,0.8359c-0.9567,0.7166 -2.8599,2.0056 -3.4829,2.689l-1.3468,1.3187c-0.07,0.0774 -0.1247,0.1426 -0.2012,0.2197c-0.7404,0.7446 -0.4629,0.2157 -1.2368,1.2883c-0.7398,1.0253 -1.9599,0.8785 -2.605,0.4748l-0.1619,-0.119c-0.0238,-0.0173 -0.055,-0.0443 -0.0785,-0.0616c-2.338,-1.7166 -0.3064,-1.9227 1.4683,-3.4951l4.0394,-2.9744c0.445,-0.3333 0.9848,-0.6817 1.3501,-1.0346l0.4295,-0.4125c0.0334,-0.0241 0.1375,-0.0853 0.1729,-0.1074c0.3657,-0.227 0.4411,-0.2721 0.7535,-0.5091l6.673,-5.11c1.408,-1.1078 3.6173,-2.2881 4.1695,-2.9846c1.5522,-1.9576 1.2597,-1.6078 3.5424,0.0609c0.4451,0.3255 0.9482,0.4505 1.2303,0.7339c0.0005,0.0006 0.4161,0.5409 0.426,0.5559c0.8901,1.3677 -0.5604,2.1526 -1.0712,2.6365c-0.176,0.1667 -0.1199,0.0896 -0.2628,0.2982l-12.1529,19.9704c-0.2682,0.4569 -0.1185,0.3883 -0.5712,0.6913c-0.5497,-0.1465 -2.1042,-1.3668 -2.1042,-2.6651" fill-rule="evenodd" id="path22"></path><path d="m101.29118,611.45713c0,-0.584 0.129,-1.9361 0.3974,-2.5481l4.8909,-7.454c0.8136,-1.0927 2.488,-3.7414 2.1461,-5.1585c-0.0323,-0.1343 -0.163,-0.6757 -0.2273,-0.8832c-0.4989,-1.6138 -2.8749,-3.8753 -4.2613,-3.8753c-1.0384,0 -5.0936,0.7022 -6.1183,1.3161c-0.7385,0.4431 -1.3094,1.135 -1.9126,1.7346c-0.9088,0.9034 -1.3507,1.8589 -2.069,1.8589c-0.2596,0 -0.8509,-0.5587 -1.2158,-0.748c-0.9805,-0.5089 -2.3453,-0.8218 0.7932,-3.041c0.1749,-0.1239 0.4093,-0.2563 0.5853,-0.3969c1.1234,-0.8983 1.8278,-1.4196 3.282,-2.0486c1.3447,-0.582 3.4523,-1.3156 4.9734,-1.3408l1.8181,-0.002c2.4333,0.1352 2.0951,-0.0392 4.8711,1.4482c0.5978,0.3203 0.6664,0.5771 1.146,0.9581c0.6857,0.5442 1.2203,1.311 1.4672,2.1798c0.0825,0.2903 0.0383,0.0995 0.133,0.4284c0.3427,1.1942 0.269,2.275 0.1289,3.4319l-0.3886,2.1361l-1.2747,2.9339c-0.6659,1.1534 -2.4424,2.8491 -3.7131,4.7035c-0.6409,0.9352 -0.7787,1.008 -1.1911,2.1753c-0.2101,0.595 -0.8589,1.9681 -0.8504,2.4565l0.3038,0.9301c0.0168,0.0249 0.0417,0.0575 0.0598,0.0811c1.0038,1.3099 2.1583,0.335 3.0776,-0.0352c0.1817,-0.0731 1.7221,-0.6792 1.8457,-0.6792c0.6318,0 1.3529,0.7203 1.5346,1.1407c0.3546,0.8203 -0.3812,1.0823 -0.9737,1.3841c-0.3257,0.1656 -0.485,0.3229 -0.803,0.4595l-3.265,0.9431c-1.9567,0 -4.0736,-0.6216 -4.8753,-2.2787c-0.1559,-0.3223 -0.3149,-1.7521 -0.3149,-2.2099" fill-rule="evenodd" id="path24"></path><path d="m84.87888,613.42093c0.0479,-0.5766 0.7962,-1.7552 1.2129,-2.5747c0.4592,-0.9042 0.3819,-0.3036 0.6387,-1.3252c0.1375,-0.5479 -0.004,-0.0425 0.1726,-0.5287c0.5664,-1.563 0.3569,-1.7617 0.5247,-3.266c0.0904,-0.8079 0.11,-1.249 -0.1001,-2.1889c-0.3424,-1.5319 -2.0304,-4.004 -4.2723,-4.004l-2.9081,0.8796c-1.9165,0.6826 -3.3078,1.2974 -4.4958,3.3599c-0.2559,0.4445 -0.1573,0.3736 -0.4807,0.7815l-1.1857,1.4797c-0.8229,0.8464 -3.5547,0.5533 -3.5547,-0.4686c0,-1.1469 0.2673,-1.0267 0.841,-1.684c0.1613,-0.1851 0.3011,-0.4218 0.4754,-0.6466c0.4417,-0.5698 0.4215,-0.2874 0.9845,-0.8393c0.1176,-0.1154 0.1375,-0.1474 0.2758,-0.2855l3.1714,-2.5798c3.2701,-1.6588 4.0462,-2.5971 8.4937,-2.5852c1.188,0.003 2.4571,0.3518 3.4356,1.0429c0.7254,0.5116 1.7751,1.7971 2.0373,2.5917l0.5017,1.7424c0.3782,1.0092 1.5852,1.4545 0.1253,4.5074c-0.3299,0.6902 -0.6837,0.6381 -0.8433,2.2428c-0.1681,1.6943 -2.8054,7.4313 -2.8054,7.4347c0,1.118 -0.5108,4.2083 1.4025,4.2083c0.893,0 0.5638,-0.536 1.6835,-0.5613c0.0786,-0.7183 -0.0881,-0.1607 0.2342,-0.4671c0.7115,-0.6772 1.6872,-1.0196 2.5495,-0.4929c0.2712,0.1658 0.4535,0.2562 0.7234,0.3991c-0.2217,0.9504 -0.6648,1.5366 -1.2595,2.1072c-0.8541,0.8201 -2.1379,1.2632 -3.3687,1.6833c-1.6333,0.557 -2.2433,-0.1001 -3.7318,-0.7614c-1.995,-0.8859 -2.1708,-3.8489 -1.8649,-5.6753c0.0833,-0.4966 0.7974,-3.1391 1.0709,-3.4064c0.0607,-0.0592 -0.0507,-0.0876 0.3164,-0.1196" fill-rule="evenodd" id="path26"></path><path d="m60.61088,609.63353c0.3183,-0.2131 2.3207,-1.9638 3.0861,-1.9638c0.6868,0 1.2549,1.1001 1.6155,1.7512l1.417,2.2301c0.699,1.0743 -0.0292,0.2177 0.8195,1.1299c0.3041,0.3268 -0.0153,0.2276 0.455,0.8124c0.2128,0.2647 0.3549,0.4614 0.5689,0.7032c0.771,0.8725 0.665,0.4244 1.3719,1.5738l6.179,8.5502c0.0686,0.0975 0.163,0.2557 0.2168,0.3441l1.6926,2.2445c0.0176,0.0184 0.051,0.0467 0.0683,0.064l0.1242,0.1143c0.0116,0.0124 0.0408,0.0405 0.0516,0.053l1.271,1.8915c-0.8112,0.2166 -1.3053,1.1223 -2.2444,1.1223c-0.4624,0 -0.7328,-0.8669 -1.0222,-1.2223c-0.3614,-0.4436 -0.7588,-0.8453 -1.1064,-1.2782c-0.1995,-0.2488 -0.2627,-0.4283 -0.4178,-0.7047c-0.2296,-0.4101 -0.8742,-0.9374 -1.6067,-2.0403c-0.5496,-0.828 -0.957,-1.2802 -1.3209,-2.0458c-0.1885,-0.3966 -0.195,-0.4136 -0.5015,-0.7608c-0.5695,-0.6458 -0.3866,-0.6758 -0.9538,-1.431c-0.6724,-0.8948 -0.8992,-0.6173 -2.3653,-2.2643l-3.2096,-3.9441c-0.3989,-0.4944 -0.6789,-0.7259 -1.0599,-1.1843l-0.9609,-1.0667c-0.0196,-0.0241 -0.0692,-0.0836 -0.0876,-0.1074c-0.0329,-0.0425 -0.2716,-0.3957 -0.4269,-0.5703c-0.2152,-0.2418 -0.4082,-0.3983 -0.6393,-0.6299c-0.4526,-0.4541 -0.6709,-0.8583 -1.0142,-1.3706" fill-rule="evenodd" id="path28"></path><path d="m200.32628,607.93453c0,-0.8272 1.1141,-2.7899 2.5365,-2.7899c1.4848,0 6.2549,1.626 2.8343,4.3568c-1.2982,1.0367 -1.8022,1.5866 -4.0736,0.4335c-0.6999,-0.3552 -1.2972,-0.8938 -1.2972,-2.0004" fill-rule="evenodd" id="path30"></path><path d="m217.02748,622.09893c0,-0.8099 1.0911,-2.732 2.484,-2.732c1.4542,0 6.1257,1.5922 2.776,4.2667c-1.2716,1.0151 -1.7649,1.5536 -3.9895,0.4243c-0.6854,-0.3478 -1.2705,-0.8753 -1.2705,-1.959" fill-rule="evenodd" id="path32"></path><g id="g34" transform="translate(-134.25 411) scale(0.63384 0.63384)"><path d="m307.4961,465.4451l1.3584,1.8964l113.0627,0l0.2571,110.8749l3.1323,-0.8688l-0.3473,-99.5386l102.0696,-0.2115l1.7085,-2.4789l-103.8637,-0.1516l-0.0635,-7.6255l114.033,-0.0161l2.1098,-3.2661l-116.2188,0.199l0.2625,-112.1151l-3.1065,0.0374l0.2044,43.1445l-67.6692,0.1434l-0.8992,0.2934l1.1787,2.0489l67.4699,-0.2492l-0.1074,57.1924l-99.6843,0.0572l-1.2056,2.0855l100.9968,0l0.0116,7.4225l-115.3015,0.1293l0.6117,0.9966z" id="path36" stroke-miterlimit="22.92558" stroke-width="0.1182"></path></g><path d="m60.65198,706.01573l0.8609,1.2019l71.6632,0l0.163,70.2766l1.9854,-0.5508l-0.2202,-63.091l64.6954,-0.1341l1.0828,-1.5712l-65.8324,-0.0961l-0.0402,-4.8334l72.2781,-0.0102l1.3373,-2.0701l-73.6636,0.1261l0.1664,-71.0625l-1.969,0.0238l0.1296,27.3464l-42.8913,0.0909l-0.5698,0.186l0.7469,1.2986l42.7649,-0.1579l-0.068,36.2505l-63.1834,0.0363l-0.7642,1.3218l64.0153,0l0.007,4.7047l-73.0823,0.0819l0.3878,0.6318l0.0004,0z" fill-rule="evenodd" id="path38"></path>
 <path d="m150.02748,771.89153c0.6642,-0.5723 2.9963,-1.8034 4.1157,-2.3978l12.6289,-6.8704c2.6782,-1.4748 5.3614,-3.3584 7.8641,-5.2222c2.5076,-1.8669 4.8555,-3.5836 7.185,-5.887c3.3693,-3.3307 3.0422,-2.6836 6.2711,-6.626l3.0696,-3.8923c1.196,-1.6214 2.9943,-3.8199 3.9575,-5.377l3.9339,-5.917c0.898,-1.4304 1.4029,-2.6552 2.2382,-4.2237c0.4955,-0.9297 1.7011,-3.7621 2.2709,-4.3755c0.3084,0.1389 2.6994,1.9397 2.7558,2.0574c0.4949,1.0352 1.789,6.8456 1.9817,7.9775c0.1029,0.6044 0.2316,1.624 0.2685,2.238c0.1992,3.3417 0.2415,4.8872 -0.2379,8.3483c-0.5629,4.0623 -0.9751,4.6508 -2.4213,8.0507c-0.5395,1.2682 -1.1549,2.1259 -1.9199,3.3709c-1.0899,1.7731 -2.0934,2.878 -3.2448,4.3866c-0.22,0.2883 -0.3805,0.4805 -0.6109,0.7489c-0.3365,0.3926 -0.2435,0.3391 -0.5664,0.7937c-2.044,2.8786 -5.1151,5.5574 -7.9061,7.7074c-3.0016,2.312 -3.6122,2.5283 -6.1965,4.3271l-3.2902,1.9786c-5.0105,2.738 -9.8062,5.8025 -15.9684,5.8025c-0.9309,0 -10.9208,-2.4151 -11.7026,-2.766c-0.9348,-0.4201 -3.8741,-2.9869 -4.4759,-4.2327" fill-rule="evenodd" id="path40"></path><path d="m67.43958,721.12213c0.5972,1.3182 1.4329,2.9846 2.116,4.2846c2.973,5.6565 5.0599,8.9385 8.8702,13.8872c1.876,2.4367 3.6941,5.002 5.783,7.289c0.9989,1.0934 1.8411,2.1782 3.149,3.2984c0.3637,0.3116 0.5374,0.5185 0.8336,0.8686l4.3586,3.7933c2.0319,1.7138 5.9641,4.7741 8.3375,6.0845l3.1343,1.9715c3.4469,2.1402 14.5006,7.5754 16.8404,9.2923c-0.0128,0.0411 -0.0409,0.1448 -0.0496,0.1191l-3.9686,3.8386c-0.7653,0.6248 -1.8371,0.7175 -2.8862,0.9851c-8.6386,2.2036 -10.7201,3.414 -19.5004,-0.6061c-3.0965,-1.4176 -9.9754,-5.5462 -12.7003,-7.5064c-0.4581,-0.3297 -0.7104,-0.5837 -1.1475,-0.8887c-2.9123,-2.0333 -5.1015,-3.8797 -7.4508,-6.6444c-2.8565,-3.361 -6.5974,-7.6728 -8.3027,-11.7295c-0.4059,-0.9654 -0.8708,-1.8722 -1.2226,-2.8624c-2.0514,-5.7708 -1.734,-14.8413 0.2718,-21.147c0.1593,-0.5009 0.3226,-0.9289 0.5023,-1.5387c0.2078,-0.7049 0.0428,-0.7364 0.5772,-1.0746c0.8813,-0.5578 1.7484,-1.4655 2.4548,-1.7144" fill-rule="evenodd" id="path42"></path><path d="m151.10048,641.66623c0.6893,-0.9496 2.8077,-3.0785 4.0629,-3.7024c0.7273,-0.3614 5.0303,-1.3393 6.2112,-1.6407c4.9377,-1.2591 7.7956,-1.7384 13.167,0.4476c0.9688,0.3943 1.7861,0.83 2.6453,1.2586c0.9059,0.4524 1.6684,0.7827 2.5687,1.3312l4.9895,2.8046c3.0833,1.9624 8.7004,5.7209 11.3443,8.3574c2.66,2.6529 8.9872,10.6361 10.038,13.4007c0.3609,0.9494 0.8351,1.9571 1.2422,2.8321c1.3201,2.8364 1.8842,10.1342 1.4074,14.0559c-0.2478,2.0378 -1.2396,7.8993 -2.1895,9.578l-2.3457,1.7524c-0.443,-0.4833 -3.194,-6.5325 -4.439,-8.4912l-2.5342,-3.9178c-0.8881,-1.3297 -1.8621,-2.4545 -2.7011,-3.7573c-1.2643,-1.963 -3.3398,-4.403 -4.8674,-6.3346c-2.1597,-2.7306 -4.3761,-5.517 -7.0532,-7.7198c-1.2724,-1.0469 -2.1713,-2.0889 -3.5027,-2.9455c-1.0539,-0.6781 -4.2129,-3.4838 -5.455,-4.2245c-0.8034,-0.4791 -1.1197,-0.7764 -1.9415,-1.2824c-4.9303,-3.037 -7.3298,-4.2514 -12.3052,-7.0585c-1.0598,-0.5979 -7.7598,-3.9428 -8.342,-4.7438" fill-rule="evenodd" id="path44"></path><path d="m105.07738,635.13663c2.6068,0 3.0306,0.411 5.4063,0.9592l6.6906,1.6243c0.7098,0.2307 1.2078,0.7409 1.7246,1.1953c0.9544,0.8397 1.8782,1.4123 2.7819,2.789c-0.7798,0.6432 -2.9928,1.738 -4.0637,2.3434c-0.6897,0.3901 -1.4627,0.7679 -2.0756,1.1362c-2.9126,1.7501 -7.3556,3.7686 -10.4326,5.7007c-1.3601,0.8544 -2.7159,1.6044 -4.0054,2.4534c-2.2569,1.4859 -5.4365,3.814 -7.3817,5.523c-1.2163,1.0687 -2.5015,1.9231 -3.5983,3.0178c-0.5567,0.5559 -1.1194,0.9831 -1.6818,1.5426c-4.1598,4.1389 -9.5731,11.2762 -12.8789,16.1649c-1.4369,2.1248 -3.9478,5.9672 -4.8033,8.0963c-0.5845,1.4553 -1.7047,3.0855 -2.1373,4.4986c-0.6426,-0.2665 -1.2847,-0.889 -1.8734,-1.3159c-1.2093,-0.8776 -2.1728,-5.7447 -2.4211,-7.2229c-0.7982,-4.7552 -0.8464,-12.608 1.1942,-17.1701c0.3493,-0.7809 0.5865,-1.4391 0.9502,-2.2609c0.8155,-1.8422 2.4778,-4.4084 3.6885,-5.9899c0.871,-1.1384 4.6139,-5.7863 5.8617,-7.0395c0.5732,-0.576 1.0219,-1.0503 1.609,-1.6155c0.5612,-0.5411 1.2064,-0.8955 1.8184,-1.4082c3.0149,-2.5268 6.1223,-4.6015 9.5476,-6.5841c4.3263,-2.5032 10.9083,-6.4377 16.0801,-6.4377" fill-rule="evenodd" id="path46"></path><path d="m59.03828,720.11733c0,1.9377 2.491,3.1867 3.9554,3.8256c-0.4158,1.6926 -0.9,3.0413 -1.2424,4.8073c-0.7795,4.0204 -0.9921,7.6263 -0.6256,11.7768c-1.6444,-1.3198 -4.6315,-13.2778 -4.9428,-15.8522c-0.1182,-0.9777 -0.1471,-2.1963 -0.1891,-3.1983c-0.1142,-2.7176 -1.0717,-6.0869 1.0523,-8.9731c1.038,-1.4108 1.5488,-1.6849 3.4047,-2.1977c3.0478,-0.8422 4.8923,0.811 7.1654,3.1286c2.4905,2.5398 1.2943,3.621 -0.008,5.5514c-0.5516,0.8178 -3.5475,3.4421 -4.9569,3.2658c-1.0579,-0.1327 -2.0917,-2.1498 -2.0917,-3.3222c0,-1.334 -0.1366,-1.7414 1.5809,-2.2071c0.6619,-0.1794 1.8884,-0.3898 2.4627,-0.0629c0.2364,-0.3356 0.4309,-0.6339 0.5199,-1.1291c-0.9388,-0.839 -2.6102,-0.8351 -3.8551,-0.8351c-2.5189,0 -2.23,4.0122 -2.23,5.4222" fill-rule="evenodd" id="path48"></path><path d="m213.90658,712.49693c0.6491,1.0437 1.0352,2.2524 1.2254,3.6969c0.1621,1.2297 -0.2863,7.8089 -0.527,9.1477c-0.4172,2.3213 -3.079,13.7795 -4.7789,15.1492c-0.2021,-2.7108 0.3974,-4.0113 -0.1962,-8.9807c-0.1621,-1.3578 -0.3928,-2.6303 -0.7032,-4.004c-0.2552,-1.1296 -0.8813,-2.6214 -0.9618,-3.6833c3.1325,-0.8733 4.3302,-2.9027 3.9132,-6.2212c-0.4771,-3.7978 -3.0339,-3.3324 -6.1126,-2.2391c0.072,0.5613 0.199,0.792 0.3991,1.1353c2.6697,0.1528 6.2135,-0.1295 3.2063,4.8427c-0.3963,0.6554 -0.5358,0.9791 -1.6977,0.792c-1.4718,-0.237 -6.4709,-4.0275 -5.7155,-6.6847c0.4243,-1.4924 4.0669,-4.6556 4.9615,-5.0405c2.1036,-0.9046 5.6619,-0.0414 6.9874,2.0897" fill-rule="evenodd" id="path50"></path><path d="m100.92378,780.13073c3.4093,-0.2157 2.5223,0.2457 6.8315,-0.3447c0.6616,-0.0907 1.4105,-0.2123 2.1663,-0.3498c1.4278,-0.2594 2.5469,-0.5635 3.9217,-0.9975c1.0448,-0.3297 2.6169,-0.9933 3.6298,-1.2098c1.3685,1.9686 1.8306,3.6394 4.924,3.6394c2.196,0 4.4873,-0.7782 4.4873,-3.2055c0,-1.0734 -0.6974,-2.7414 -1.1336,-3.3361l-1.0239,0.5673c0.2336,1.2574 0.3674,2.4457 -0.2455,3.6657c-0.5462,1.0871 -2.8837,0.6704 -4.0158,0.002c-2.7995,-1.6532 -0.1108,-3.6652 1.1625,-5.4054c2.624,-3.5852 4.1201,-3.4052 7.3015,-0.1604c1.9482,1.9873 2.518,2.213 2.518,4.8367c0,1.8613 -1.0004,3.3307 -1.9273,4.2316c-0.7498,0.7288 -3.0611,1.8465 -4.4065,1.8465l-8.8296,0c-0.7024,0 -3.0396,-0.5281 -4.0235,-0.6701c-3.3398,-0.4811 -8.7486,-1.3624 -11.3369,-3.1099" fill-rule="evenodd" id="path52"></path><path d="m145.66018,770.52413c1.9491,0 2.6654,1.3748 3.723,2.7371c0.4797,0.6177 2.6317,2.522 2.2961,4.062c-0.3456,1.5855 -5.6282,3.4161 -5.6282,-0.1698l0.1449,-2.3703l-0.984,-0.4771c-2.4556,3.2474 -0.9966,6.4097 2.316,6.4097c4.0688,0 3.7513,-0.1343 5.9428,-3.6374c2.9667,1.4956 8.1099,2.5591 11.7091,2.9747c1.07,0.1236 4.026,-0.1908 4.6689,0.1562c-0.7333,0.7435 -5.8952,2.0957 -7.2082,2.3496l-6.1747,0.9868c-0.4833,0.081 -1.8012,0.3651 -2.1459,0.3651l-8.3202,0c-2.0543,0 -5.241,-1.7728 -5.9644,-3.6596c-1.5123,-3.9444 0.0859,-5.3484 1.7362,-6.9831c0.6874,-0.6812 2.4988,-2.7439 3.8886,-2.7439" fill-rule="evenodd" id="path54"></path><path d="m57.21298,696.69173c0,-2.2838 0.4034,-4.2621 0.4567,-6.6208c0.0428,-1.897 0.7384,-3.8631 1.0947,-5.561c0.5114,-2.435 1.9333,-8.2993 3.1646,-9.9454c0,4.4354 -0.0337,7.5118 0.9825,11.6736c0.2823,1.1566 0.686,2.2034 0.9108,3.3242c-0.4227,0.2756 -0.7798,0.3844 -1.2246,0.654c-2.9574,1.7932 -2.6467,2.7941 -2.6467,5.9663c0,1.1946 0.8306,2.7213 2.2246,3.1652c1.4176,0.4519 3.7965,-0.4198 4.4694,-0.9961c-0.216,-0.5468 -0.3642,-1.01 -0.6474,-1.4544c-0.9751,0 -1.6827,0.0612 -2.533,-0.1659c-1.4174,-0.3792 -1.3836,-0.5266 -1.3836,-2.0766c0,-0.7665 0.9439,-2.7768 2.2439,-2.7768c0.9147,0 2.2668,1.3002 2.8754,1.7713c0.8538,0.6611 2.9143,2.7805 2.7686,4.0524c-0.1916,1.6739 -2.1379,3.1003 -3.0994,3.9118c-2.298,1.9395 -3.2252,2.3432 -6.4681,1.0523c-1.8518,-0.7373 -3.1884,-3.4923 -3.1884,-5.9741" fill-rule="evenodd" id="path56"></path><path d="m140.42258,636.93943c0,-1.525 0.0511,-3.1105 1.258,-4.4898c2.712,-3.098 7.7616,-2.3196 11.7927,-2.3355c2.5294,-0.0102 13.2248,1.8015 15.6062,3.1972c-5.6381,0 -9.8413,1.0083 -14.8944,2.8902c-2.5407,-3.2918 -1.9927,-3.499 -5.6384,-3.499c-3.1104,0 -4.8197,1.5876 -4.013,4.7162c0.4136,1.6022 0.7183,1.6101 0.9097,2.2814c0.6205,-0.1829 1.2551,-0.563 1.652,-0.8161c-0.0318,-0.5848 -0.18,-1.1138 -0.1324,-1.954c0.0235,-0.4113 0.0411,-0.5533 0.1298,-0.896c0.1491,-0.5726 0.2237,-0.8935 0.8422,-1.1049c1.1319,-0.3872 2.696,0.2843 3.5277,0.9694c1.5004,1.2359 -0.8237,3.2749 -1.6018,4.2273c-0.7606,0.9309 -0.4629,1.1345 -1.5991,1.9542l-0.4824,0.3734c-1.9001,1.4672 -3.9127,-0.876 -4.9091,-1.874c-0.8781,-0.8793 -2.4477,-1.889 -2.4477,-3.64" fill-rule="evenodd" id="path58"></path><path d="m206.79218,696.89733c-0.3597,0.496 -0.5352,0.8886 -0.6534,1.6426c1.6228,1.0109 6.0264,2.2768 6.6492,-2.2575c0.2245,-1.6347 -0.0139,-3.403 -0.6556,-4.424c-0.8354,-1.3292 -2.3582,-1.6537 -3.1709,-2.2961c0.4405,-2.8927 1.8199,-5.4093 1.899,-10.6877c0.0178,-1.203 -0.1338,-3.0612 0.0779,-4.1703c0.8524,2.1557 1.8695,4.4563 2.3695,6.8388c0.5182,2.4687 1.3096,5.0695 1.6753,7.6502c0.1975,1.3923 0.5368,7.0948 0.4308,8.509c-0.1916,2.5534 -1.5491,4.5655 -3.9903,5.322c-3.7848,1.1725 -4.2605,-0.4765 -6.317,-2.1084c-0.8014,-0.6358 -1.5608,-1.097 -2.1198,-2.448c-0.589,-1.4235 0.4454,-2.4111 0.9987,-3.2204c0.538,-0.7869 4.199,-4.5462 5.5627,-2.8454c0.5369,0.6695 1.5398,2.2997 1.0627,3.5152c-0.4328,1.1036 -2.6104,0.98 -3.8188,0.98" fill-rule="evenodd" id="path60"></path><path d="m120.80008,636.43033c0.4445,-0.777 1.6993,-1.4786 2.7898,-1.5911c2.5589,-0.2636 2.412,2.0551 2.0671,4.0601c0.428,0.2395 0.9813,0.57 1.4947,0.7169c1.5655,-1.7572 3.0254,-7.0657 -3.7358,-7.0657c-3.2445,0 -4.0178,2.7482 -4.9244,3.6369c-0.7044,-0.4119 -2.2915,-0.8184 -3.1881,-1.1296c-2.7108,-0.9411 -4.5604,-1.1107 -7.3171,-1.5724c-1.4966,-0.2512 -2.7992,-0.0559 -4.3364,-0.2115c2.6082,-1.3598 7.4171,-2.1019 10.3119,-2.5154c0.8915,-0.1276 3.2329,-0.6415 3.8508,-0.6415c3.6922,0 10.1407,-0.6276 12.6618,1.637c0.5667,0.5085 1.0307,0.9312 1.3179,1.7359c1.3076,3.6664 0.3554,4.8342 -1.7944,6.9809c-3.7819,3.7769 -4.5567,2.7788 -6.9976,-0.2265c-0.837,-1.0301 -2.1943,-1.9485 -2.2002,-3.814" fill-rule="evenodd" id="path62"></path>
 <path d="m141.22708,828.01613l-0.2775,-5.5041c-0.1758,-0.6253 -0.1505,-1.2387 -0.2798,-1.7954c-0.5564,-2.393 -0.6707,-2.7848 -0.9346,-5.15l-0.1973,-0.7526c-0.0207,-0.1069 -0.0235,-0.4278 -0.0669,-0.7455l-0.9124,-7.2505c-0.1812,-0.7276 -0.0581,-1.0037 -0.1659,-1.7611c-0.1253,-0.8802 -0.1349,0.216 -0.2854,-1.7901c-0.0811,-1.0809 -0.9179,-2.4361 0.0354,-3.2392c0.8167,-0.6879 2.1592,-0.4892 2.5438,0.5117c0.1287,0.3339 0.3487,4.265 0.6262,5.4518c0.2427,1.0384 1.0755,7.8648 1.3635,8.8651c0.3172,1.1035 0.6925,2.0665 0.9771,3.1734c0.0839,0.3257 0.085,0.5369 0.1621,0.8756l0.6449,4.5434c0.1259,1.2889 -0.009,0.6919 0.4725,1.6027c1.6892,-0.3934 4.4674,-3.3194 5.9077,-4.4694c2.0855,-1.665 1.0681,-1.9596 4.5133,-0.6148c0.8584,0.3348 1.4613,0.5703 2.3837,0.8776c0.8824,0.2942 1.5908,0.5335 2.4452,0.8158c2.3292,0.7693 1.1145,0.8289 2.3904,0.7226c0,-0.5559 0.0819,-1.1991 -0.0482,-1.7306l-0.5587,-2.9991c-0.1567,-1.4751 -0.7123,-3.8451 -0.7319,-4.7528c-0.0212,-0.9952 -0.0397,-2.154 -0.6128,-3.0932c-0.2279,-0.3733 -0.4292,-0.7724 -0.576,-1.2027l-1.6699,-9.1517c-0.3923,-1.4598 -0.976,-2.3714 0.8719,-2.7796c0.6171,-0.1364 1.4284,-0.3677 1.9916,-0.3804c0.3464,0.5176 0.4541,0.568 0.4524,1.4746c-0.006,3.5838 1.0469,6.2022 1.3374,8.7429c0.1843,1.6103 1.1588,5.7461 1.2844,6.7203l1.0896,6.9157c1.4262,4.4309 1.215,3.9731 -1.3767,4.5788c-4.0252,0.9411 -2.7032,0.851 -6.9821,-0.8158c-4.9487,-1.9275 -3.0707,-2.4435 -7.7006,1.4015l-0.619,0.5669c-0.1951,0.1777 -0.0885,0.0819 -0.2379,0.2069c-2.9851,2.4962 -1.6781,2.0795 -6.5185,2.0795c-0.2333,0 -0.5616,-0.0788 -0.741,-0.1482" fill-rule="evenodd" id="path64"></path><path d="m118.39828,813.04403c-0.2013,0.8646 -0.1772,2.0829 -0.3407,3.0688l-0.2365,1.4037c-0.1516,0.5179 -0.0342,1.872 -0.2219,2.8815l-0.3935,3.1762c-0.0331,0.7988 0.1548,0.8515 0.1548,1.6254c1.1344,0 1.8984,0.1632 2.9951,0.4147c1.139,0.2608 5.3629,0.8214 5.995,-0.0227c0.6055,-0.8082 0.2322,-2.215 -0.1891,-2.9667c-0.5663,-1.0109 -1.186,-0.948 -1.7013,-2.0047c-0.457,-0.9369 -0.5409,-0.3509 -1.539,-2.1671c-0.2596,-0.4722 -0.1527,-0.3087 -0.4561,-0.7296c-0.229,-0.3184 -0.2653,-0.3901 -0.4617,-0.7243l-1.2526,-1.8606c-0.0406,-0.0769 -0.1055,-0.2438 -0.1917,-0.4012c-0.1241,-0.2256 -0.4022,-0.6508 -0.5272,-0.807c-0.3093,-0.3861 -0.9845,-0.8322 -1.6336,-0.8864zm-5.1883,13.786c0.2245,-0.6199 0.6594,-0.4325 0.7407,-1.3345c0.0298,-0.3274 -0.0337,-0.6806 0.0224,-1.0151c0.1058,-0.6247 0.1415,-0.1556 0.2537,-0.7841c0.11,-0.6168 -0.0635,-1.3379 0.0828,-1.9927c0.3229,-1.4457 0.4377,-3.9076 0.6412,-4.6953c0.318,-1.2305 0.5757,-2.3905 0.6276,-3.6714c0.0357,-0.8856 0.0672,-0.4672 0.2146,-0.9712l1.4201,-9.1049c0.0825,-1.9465 0.161,-0.9978 0.2767,-1.9468c0.1304,-1.0746 -0.1191,-3.1686 2.192,-2.5985l0.483,0.2585c0.9627,1.0054 0.1724,4.1077 -0.0467,5.1165c-0.7773,3.5813 0.2551,5.6072 2.1631,8.6284c0.3305,0.5233 0.5204,1.0358 1.0091,1.3629c1.2507,-0.2914 1.1982,-2.0081 2.0551,-3.1331l1.1123,-1.9854c0.009,-0.0258 0.0173,-0.0706 0.0244,-0.0961l2.0532,-5.8468c0.01,-0.0394 0.0215,-0.0771 0.0326,-0.1156l0.2945,-1.188c0.1743,-1.2314 0.0983,-1.1849 0.6539,-2.0143c1.9625,0 0.8567,-0.1233 2.1436,0.2282c1.6302,0.4447 2.3729,-0.0715 0.4963,3.0047l-0.7543,1.2994c-0.3968,0.409 -0.3722,0.339 -0.7024,1.2455l-0.6202,1.6042c-0.0649,0.127 -0.2001,0.3407 -0.2693,0.4719c-0.2137,0.4057 -0.2988,0.6806 -0.4603,1.1702c-0.4961,1.5001 -2.0441,4.7605 -3,7.6734l-0.5394,1.091c1.0863,1.6223 2.2144,2.831 2.6762,3.5499l1.372,1.741c0.265,0.3135 0.4223,0.5031 0.6758,0.8067c0.3809,0.4564 0.5567,0.3493 0.6125,1.018l0.4448,0c0.0861,1.0354 1.1486,1.3594 0.4133,2.3292c-0.4369,0.576 -1.2331,1.2285 -2.1923,1.2285c-2.503,0 -8.0255,0.233 -10.0628,-0.3138l-5.5074,-0.7188c-0.7483,-0.027 -0.5814,0.0002 -1.0324,-0.3017" fill-rule="evenodd" id="path66"></path><path d="m186.29138,785.91653c0,-0.4164 1.7255,-2.7468 2.8157,-0.1477c0.1973,0.4705 0.0502,0.2222 0.377,0.661c1.0392,1.3944 1.4944,1.7476 2.3896,3.3917l2.6595,4.1593c0.3886,0.5615 0.7826,0.7608 0.8005,1.5712l0.4447,0c0.0777,0.932 2.2666,3.4909 3.0487,4.8081l0.9536,1.4185c0.43,0.7458 0.7234,0.9156 0.8898,1.6299l0.4447,0c0.1551,-0.6659 0.4099,-0.7549 0.4493,-1.6259c0.0329,-0.722 -0.0442,-1.5174 -0.013,-2.2366c0.0402,-0.9232 0.2732,-0.8487 0.7137,-1.3617c0.4975,-0.5797 0.311,-0.9516 0.3277,-1.8959c0.0145,-0.8458 0.2418,-1.0615 0.2965,-1.7787c0.0618,-0.8036 0.0216,-1.4482 0.1123,-2.1112c0.0975,-0.7121 0.0258,-1.4641 0.0346,-2.189c0.015,-1.2149 0.4408,-2.7487 -0.0709,-3.9197c-0.2166,-0.4958 -0.519,-1.0287 -0.8456,-1.3782c-1.3016,-1.3927 -2.9514,-3.0841 -4.119,-4.6267c-0.9694,-1.2813 -1.677,-1.4542 -1.9256,-2.5214c0.6075,-0.3215 1.0418,-0.5046 1.9024,-0.6288c1.125,-0.1627 1.44,-0.004 2.501,1.2651c1.1075,1.3252 1.8575,2.0041 3.0098,3.5125l8.5093,10.0207c0.6696,0.9916 0.4099,0.5074 0.8861,1.0412l1.5492,1.8601c0.2579,0.3211 0.3903,0.3761 0.6772,0.657c0.7477,0.7325 1.1599,1.7595 2.0145,1.9877c-0.2043,0.8779 -0.6363,0.917 -1.383,1.2849c-3.467,1.7088 -1.4028,0.8161 -3.2876,-0.913c-0.8719,-0.7999 -4.451,-5.7314 -5.521,-6.7827c-0.7648,-0.7512 -0.5582,-0.9457 -1.2226,-1.0012c-0.1517,0.6516 -0.4082,1.0272 -0.3546,1.6976l-0.1752,4.1468c-0.4252,2.903 -0.0148,4.9825 -0.2738,6.6932c-0.1177,0.7764 -0.0556,1.3363 -0.0811,2.143c-0.0193,0.6075 -0.1072,0.6539 -0.1324,1.0556c-0.0454,0.724 0.6724,1.1977 -1.4698,2.5302c-2.8536,1.7754 -2.8853,0.9629 -3.5424,-0.3778l-0.5599,-1.0707c-0.5556,-0.8541 -0.9034,-1.7297 -1.6268,-2.6725l-2.3142,-3.6153c-0.4286,-0.7557 -0.8779,-1.0556 -1.8235,-2.92c-0.4535,-0.8946 -2.0903,-3.9237 -2.6694,-4.4555c-0.7118,-0.6539 -0.0887,-0.4969 -1.0754,-1.5834c-0.6466,-0.7121 -1.1132,-1.7067 -1.6064,-2.5441c-0.3632,-0.6165 -0.4428,-0.9425 -0.8674,-1.5043c-0.2376,-0.3147 -0.8468,-1.2578 -0.8468,-1.6733" fill-rule="evenodd" id="path68"></path><path d="m182.28888,801.03683c-2.0817,0 -2.6643,0.6647 -5.1259,1.6931c-0.6448,0.2696 -3.0843,1.1806 -3.3987,1.6412c-0.5842,0.8564 0.3668,1.0591 0.8056,2.0129c0.6324,1.3757 1.0885,1.2725 2.4182,2.6218c0.9125,0.9261 2.6587,1.7459 3.877,2.3488l0.8841,0.4504c3.113,1.1838 2.7757,1.239 5.4315,1.239c1.0176,0 0.8895,-0.502 0.8895,-1.4822c-0.9576,-0.0839 0.0663,0.4133 -0.6902,-1.0848c-0.2637,-0.5227 -0.4051,-0.9587 -0.6418,-1.4375c-1.0069,-2.0378 -1.6024,-3.7309 -2.717,-5.5842c-0.58,-0.9644 -1.1007,-2.4185 -1.7323,-2.4185zm-17.3438,-5.9296l0.5775,-0.2443c3.7029,-1.0894 1.8816,-0.5913 3.1286,0.0961l0.7903,2.9157c0.1596,0.4884 0.2661,0.5766 0.415,0.919c0.0615,0.1414 0.8693,3.2805 1.7594,3.2805c1.084,0 1.8173,-0.4561 2.672,-0.7373l3.8315,-1.8824c0.3569,-0.0953 0.3379,-0.0854 0.6081,-0.19c1.1168,-0.4328 2.1574,-1.1137 2.3757,-1.1925c0,-1.3731 -2.7238,-5.4493 -3.5544,-6.6742c-0.2077,-0.3064 -0.4118,-0.5964 -0.4481,-1.0343l2.8165,-1.1858c0.3637,0.5432 0.9295,0.7954 1.218,1.8797c0.1891,0.7098 -0.3764,0.4232 0.4128,0.4921c0.0204,0.9326 0.8557,2.2221 1.1647,2.9854c0.233,0.5749 0.4198,0.8643 0.6568,1.4188l5.0831,9.5927c0.2667,0.5536 0.4133,0.841 0.718,1.3572l1.5667,2.7321c0.2744,0.4305 0.5026,0.8056 0.7892,1.2863c1.3626,2.2836 2.4052,3.2273 0.6103,3.8169c-0.669,0.2197 -1.0488,0.2797 -1.7816,0.4459l-3.4707,0.5275c-1.5203,0 -3.3296,-0.1074 -4.5522,-0.6364c-0.9337,-0.4039 -1.0848,-0.2506 -2.9089,-1.0933c-1.8624,-0.8606 -4.068,-2.3122 -5.5468,-3.7922c-1.5016,-1.5021 -2.6966,-2.3485 -3.8818,-4.1233c-1.5885,-2.3794 -2.0891,-5.3643 -2.9659,-6.6696l-2.0838,-4.2903z" fill-rule="evenodd" id="path70"></path><path d="m221.12728,769.61023c0.4436,0.1185 1.1797,0.7594 1.9715,0.9122l1.9451,0.3594c3.7111,0.5984 5.3595,0.9788 9.2355,-0.5715c1.1506,-0.46 2.9923,-1.1693 3.3024,-2.3306c-0.8929,-0.2384 -3.3494,-1.8831 -4.2528,-2.4183c-2.1413,-1.2685 -3.2298,-2.1174 -5.728,-3.4628c-0.5646,-0.3038 -1.0547,-0.5108 -1.582,-0.7897c-0.0808,0.9723 -0.4487,0.6826 -1.2333,2.0276l-1.8769,3.0152c-0.2474,0.4811 -0.341,0.525 -0.6548,0.9757c-0.5164,0.741 -0.9901,1.2172 -1.1267,2.2828zm-11.2661,-4.5953c0,-0.4663 0.0315,-0.7018 0.3323,-1.0017c1.3379,-1.3343 2.7626,0.6244 4.1128,1.5967l2.0364,1.3728c0.8365,0.6398 0.3203,0.7005 1.8198,0.7005c0.4476,0 0.1755,-0.0346 0.7787,-0.7036c1.1744,-1.3022 2.3627,-2.9012 3.3219,-4.3866c1.0208,-1.5806 2.8117,-2.435 0.5275,-3.837c-0.3832,-0.2352 -0.6661,-0.3435 -1.0423,-0.5882c-1.6798,-1.0919 -0.9958,-0.517 -2.2067,-1.0547c-0.4354,-0.1931 -0.6313,-0.3674 -1.037,-0.5933c-0.5811,-0.324 -1.6761,-0.8053 -1.6761,-1.5852c0,-0.6871 0.8442,-1.6304 1.4823,-1.6304l10.5071,5.947c1.3831,0.6483 5.8678,3.6548 7.4322,4.4269l0.6741,0.3637c0.0263,0.0176 0.0606,0.0436 0.087,0.0612l2.0976,1.16c0.8533,0.4362 2.4752,1.1474 2.4752,2.2719c0,1.8754 -5.0893,4.559 -6.5721,5.2869c-0.3234,0.1588 -0.4768,0.2208 -0.7787,0.4074c-1.7949,1.1097 -3.7383,1.1248 -5.9904,1.1248c-0.9476,0 -4.9218,-0.6753 -5.838,-0.9811c-0.947,-0.3164 -1.5383,-0.5834 -2.5307,-0.8788c-0.7538,-0.2245 -0.5945,-0.2384 -1.1798,-0.5989c-2.3783,-1.4647 -2.8191,-1.6532 -5.2146,-3.5314c-0.3756,-0.2943 -0.4859,-0.5165 -0.8768,-0.754c-0.8504,-0.5176 -2.7417,-1.5699 -2.7417,-2.5949" fill-rule="evenodd" id="path72"></path><path d="m87.26818,790.06703c0.9522,0 4.3591,0.1539 4.985,0.9447l0.3518,0.5378c-0.4159,0.5675 -0.2625,0.0258 -0.6197,0.8626c-0.1584,0.3713 -0.2687,0.5989 -0.4691,1.0133c-1.1758,2.4308 -0.1227,0.91 -1.6679,2.9277l-0.8345,1.3898c-0.9051,1.6342 -0.053,1.1483 -0.8561,1.2183c-0.0263,1.1835 -3.3437,9.2163 -3.865,9.6319c-0.7393,0.5887 -3.102,-0.1491 -3.102,-0.8859c0,-1.5142 0.0757,-0.8566 0.656,-2.1605c0.5181,-1.1642 0.6429,-1.1843 1.1712,-2.0897l0.7127,-1.4959c0.1522,-0.4765 0.0326,-0.4456 0.4246,-0.4799c0.0833,-1.0003 1.7218,-3.3346 1.9939,-3.9359c0.8663,-1.9145 0.7985,-1.3008 1.3788,-3.0679c0.5544,-1.6895 0.6933,-1.7144 -1.9063,-1.635c-2.2346,0.068 -5.8006,0.6984 -7.8429,1.521c-0.7359,0.2963 -1.4953,0.6305 -2.2397,0.8734c-0.4952,0.1613 -0.6264,0.1868 -1.048,0.4348c-0.5278,0.3104 -0.5573,0.2673 -1.1386,0.4915c-0.3887,0.15 -1.5968,0.872 -1.9673,1.1461c-0.813,0.6012 -0.9924,0.8836 -1.6432,1.6177c-0.3912,0.4414 -0.9454,1.317 -1.0732,1.9965l-0.093,2.4894c0.3481,2.5307 0.9173,2.9247 2.0273,4.3574c1.2912,1.6667 4.1913,3.0044 6.1611,3.3261c0.8932,0.1457 1.9593,0.3958 2.7959,0.4655c-0.0672,0.8099 -0.5698,2.9645 -2.0753,2.9645c-0.5241,0 -2.8559,-1.3587 -3.6417,-1.8431c-1.0397,-0.6412 -2.1279,-1.0636 -3.5172,-2.1158c-1.622,-1.2288 -2.5815,-1.9828 -3.9963,-3.564c-1.0596,-1.1837 -0.8379,-1.332 -1.1979,-2.6558c-0.2506,-0.9215 -0.3005,-2.3241 -0.3886,-3.3196c-0.2194,-2.4786 1.2021,-2.7343 2.9956,-4.5491c0.6687,-0.6763 2.5271,-2.863 3.3971,-3.1255l6.0216,-1.9814c0.9873,-0.2491 2.0004,-0.4929 3.0835,-0.7724c1.7317,-0.447 4.8943,-0.5326 7.0274,-0.5326" fill-rule="evenodd" id="path74"></path><path d="m46.35458,791.69773l2.797,-3.429c0.2939,-0.3683 0.7341,-0.8306 0.9513,-1.2725c1.1928,-2.431 1.616,-3.1187 3.2159,-5.2333c0.3362,-0.4439 0.6443,-0.6438 0.9825,-1.0931c0.3693,-0.4907 0.4325,-0.7622 0.8328,-1.2427c0.3645,-0.4379 0.5763,-0.7891 0.8288,-1.2464l0.8717,-1.3518c0.2727,-0.4941 0.4606,-0.8204 0.7413,-1.334c0.199,-0.3648 0.18,-0.3047 0.3583,-0.6795c0.5014,-1.0545 0.5845,-1.1834 1.3388,-1.7742c0.407,-0.3194 0.8708,-0.6624 1.0159,-1.2075c-0.9111,-0.512 -1.1353,0.2055 -3.0827,1.5125c-1.6582,1.1129 -4.5986,2.7289 -6.4604,3.6873l-2.3386,1.1518c-0.7886,0.3206 -0.4952,0.3447 -1.3504,0.7248c-0.9661,0.4291 -1.7037,0.9176 -2.6306,1.3719c-0.9646,0.4726 -0.7421,0.6035 -2.5197,1.4826c-0.4414,0.2182 -0.8235,0.4147 -1.2076,0.7197c-1.0556,0.8382 -1.4093,1.7064 -2.8063,-0.4096c-0.1561,-0.2364 -0.115,-0.2336 -0.2712,-0.4697c-0.781,-1.1784 -0.902,-0.542 -0.902,-2.0628c0.8362,-0.0187 1.2033,-0.3311 1.7793,-0.5924c0.8373,-0.3796 3.6655,-1.3329 5.0904,-2.0248c1.9256,-0.9346 3.1808,-1.188 4.8841,-2.2315c0.6186,-0.3787 0.9848,-0.4328 1.6291,-0.7429c0.5468,-0.2631 0.9298,-0.6134 1.5015,-0.8703c0.6259,-0.2812 1.0953,-0.369 1.6594,-0.7123c2.467,-1.5001 6.7828,-3.2153 8.466,-4.5788c0.2897,-0.2344 0.5011,-0.3617 0.7835,-0.5508c0.5096,0.3413 2.52,2.0274 2.52,2.9648c0,0.5264 -0.8394,0.8716 -1.2116,1.1602c-0.8254,0.6398 -0.5561,0.7537 -1.0573,1.4627c-0.1885,0.267 -0.3047,0.3313 -0.5227,0.6633c-0.2075,0.3149 -0.2973,0.544 -0.4773,0.8569c-0.2954,0.5134 -0.5837,1.0749 -0.9085,1.6115c-0.6724,1.1095 -1.2345,1.9701 -2.1612,2.8789c-1.1211,1.0992 -3.1895,5.0748 -3.8922,6.6172l-0.6775,0.9646c-1.5058,2.3323 -0.7245,0.8626 -1.8904,3.1535l-2.1734,5.387c-0.8435,-0.0703 -0.8702,-0.5726 -1.9709,-1.4389l-1.7351,-1.8224z" fill-rule="evenodd" id="path76"></path><path d="m88.00968,819.86313c0.4281,-0.893 -0.3279,-0.5945 0.9808,-2.1422l0.5947,-0.8762c0.1341,-0.2304 0.1395,-0.2117 0.2231,-0.3645c0.442,-0.8076 0.6948,-1.6965 0.955,-2.6096c0.2101,-0.7359 0.3439,-1.116 0.5579,-1.8139l0.307,-0.8787c0.1295,-0.383 0.14,-0.5363 0.2766,-0.9094l4.4771,-11.8522c0.409,-1.0117 0.4538,-0.4572 1.3575,-3.215c0.7078,-2.1606 -0.0479,-2.2051 4.0966,-0.7274l9.3107,2.9931c0.6213,0.2319 0.1927,0.2514 0.8776,0.3084c0.0995,1.1968 1.1282,0.9099 -0.1483,2.8165c-1.0604,-0.0884 -0.8917,-0.3725 -1.5406,-0.8314c-0.9269,-0.6554 -2.5914,-0.5712 -3.7355,-1.008l-5.1593,-1.9633c-0.1245,-0.049 -0.4025,-0.1834 -0.4065,-0.1848c-1.2288,-0.4728 -1.7887,0.9147 -2.056,1.9111c-0.1737,0.6472 -0.46,1.2274 -0.5746,1.7975l-1.0374,3.7057c-0.1109,0.3447 -0.1449,0.5431 -0.2515,0.9346l-0.4512,1.3275c-0.4678,1.377 -0.4913,1.997 -0.7144,2.3986c-0.4325,0.779 -0.6239,1.6682 -0.9952,2.4146c-0.362,0.7276 -1.0024,1.6563 -0.508,2.4809c0.3532,0.5896 4.3509,1.5582 5.2557,1.8598l2.9824,1.0202c1.3141,0.4286 2.2249,0.7327 2.2249,2.222c0,1.3629 -2.8443,0.0261 -3.4393,-0.1184l-2.8809,-0.8249c-0.5215,-0.1701 -0.881,-0.2574 -1.3906,-0.3884c-0.5993,-0.1542 -0.832,-0.324 -1.404,-0.4799c-0.0581,-0.0159 -0.2571,-0.0587 -0.258,-0.0587l-0.5479,-0.2043c-0.6775,-0.3272 -0.8181,-0.5936 -1.7901,-0.5936l-0.29,0.9122c-0.142,0.2055 -0.4119,0.8169 -0.3373,1.1962c0.0924,0.4705 0.2353,0.5346 0.5896,0.7452l4.5816,1.645c0.4607,0.1958 0.4369,0.1958 0.9987,0.335c0.7767,0.1925 1.3209,0.3442 2.103,0.5655c1.442,0.4082 2.7714,0.7067 4.2134,0.8269l0.1483,2.0752c0,0.18 -0.6656,0.5931 -0.8895,0.5931c-1.139,0 -3.0422,-0.8485 -4.1522,-1.1844c-0.4737,-0.1434 -0.5071,-0.2219 -0.9547,-0.3795c-0.3751,-0.1318 -0.6599,-0.165 -1.0585,-0.2758l-3.1277,-1.0231c-0.0324,-0.0136 -0.0695,-0.0323 -0.1024,-0.0456l-0.7755,-0.2619c-1.5509,-0.4952 -4.7308,-1.753 -6.1351,-1.8697" fill-rule="evenodd" id="path78"></path><path d="m25.89778,765.16323c0,-2.3114 0.2109,-3.4668 2.4308,-4.6848c1.0437,-0.5729 2.8071,-0.3416 3.9174,-0.1812c2.727,0.3943 2.41,0.2157 5.2994,1.3714c2.6969,1.0789 7.1127,2.9557 9.9683,1.5404c1.114,-0.5522 2.5314,-1.4188 3.136,-2.4971c1.1817,-2.1067 1.1355,-5.5729 -0.883,-7.1138c-0.3478,-0.2656 -0.5428,-0.4768 -0.8892,-0.7415l-2.89,-2.0019c-0.4538,-0.282 -0.5431,-0.5281 -0.9669,-0.8121c0.4692,-0.8867 0.5766,-1.2733 1.2408,-2.0202c0.3858,-0.434 0.2004,-0.2427 0.6862,-0.4995c0.9278,0.216 3.1544,2.3221 3.7511,3.0677l0.7166,0.9141c2.2363,2.7298 2.3953,4.4632 3.1468,5.6115c0.447,0.6834 -0.0723,1.8771 -0.4479,2.6132c-0.6401,1.2541 -1.6416,3.6165 -2.3967,4.5706c-0.9286,1.1736 -2.1413,1.4483 -3.1368,1.9032c-1.239,0.5667 -1.1543,0.5091 -2.6345,0.7869c-0.6727,0.1262 -0.7045,-0.0238 -1.5163,-0.0485c-1.8972,-0.0581 -1.569,-0.1593 -3.0314,-0.5283l-4.081,-1.1073c-0.2829,-0.119 -0.3257,-0.1749 -0.6398,-0.2497c-0.2931,-0.07 -0.4527,-0.0601 -0.7537,-0.1355c-1.9851,-0.4972 -3.6666,-1.5366 -5.8754,-1.5366c-0.3841,0 -1.186,0.8759 -1.186,1.4825c0,3.5081 3.5578,3.2414 3.5578,5.7812c0,1.2952 -0.1123,0.6917 -0.2965,1.4826c-0.9,0 -1.4967,-0.5446 -2.1158,-1.1458l-2.8616,-3.0677c-0.4745,-0.5757 -1.2487,-2.461 -1.2487,-2.7538" fill-rule="evenodd" id="path80"></path>
 <path d="m210.15768,778.50443c-0.0532,-0.64 -0.6939,-1.2809 -1.3342,-1.3339c-0.0624,-0.7501 -1.554,-1.8854 -2.4117,-2.7766c-0.5131,-0.5329 -0.5672,-0.8215 -1.2084,-1.3119c-1.1081,-0.8478 -1.2717,-0.9351 -1.2717,-1.8411c0,-0.5161 0.9956,-1.3342 1.6305,-1.3342c0.3076,0 1.2648,0.9107 1.5197,1.1486l9.5607,9.4141c1.2055,1.2198 2.9755,2.6034 4.3364,3.668c1.1673,0.9131 3.4075,3.0116 4.2698,4.0397c0.5755,0.6866 0.165,1.1577 -0.2987,1.7104c-0.364,0.4337 -0.9046,1.247 -1.3028,1.5137c-1.1846,-0.2758 -0.8791,-1.0193 -1.5923,-1.817l-0.7585,-0.8722c-0.2659,-0.2931 -0.5984,-0.4864 -0.9465,-0.8323l-1.8048,-1.6049c-1.0707,-0.8368 -1.8105,-1.4389 -2.5767,-2.3134l-1.4139,-1.2546c-0.5301,-0.5357 -0.2824,-0.4757 -1.0823,-1.1441l-2.4752,-2.5633c-0.6426,-0.6696 -0.2285,-0.4439 -0.8394,-0.495" fill-rule="evenodd" id="path82"></path><path d="m31.65588,719.67623c1.9136,0 2.9083,-0.7484 4.5246,-2.8871c1.5378,-2.0353 0.4624,-4.4711 0.4167,-5.0187c-1.3416,-0.1171 0.1245,0.1479 -0.8399,-0.4669c-2.6303,-1.6773 -2.6379,-2.0444 -5.3892,-1.3153c-0.9604,0.2546 -1.5126,0.7773 -2.0849,1.5389c-0.9054,1.2053 -1.2118,4.563 0.2395,6.3412c0.4374,0.5357 2.2329,1.8079 3.1332,1.8079zm6.0942,-12.3528l-0.2268,-2.5623c-0.4944,-1.0981 -0.1596,-0.7302 -0.4819,-1.5054c-0.9025,-2.1708 -0.6392,-1.3978 -1.7946,-3.1465c-0.6531,-0.9884 -2.6155,-3.2907 -3.6573,-3.7545c-3.4013,-1.5134 -3.9622,0.4275 -6.3572,0.4275c-1.1294,0 -1.5923,-0.6718 -2.3057,-0.3294c-0.0661,-0.794 -0.2634,-0.5236 -0.3297,-1.3176c1.8309,-0.9688 3.1533,-1.7314 5.3923,-2.031c3.5034,-0.4685 8.572,2.5433 9.8368,4.5904l2.9668,10.0571c0.3313,1.1205 0.1893,0.3586 -0.1026,2.1815c-0.0783,0.487 -0.0735,0.2824 -0.201,0.7878l-0.6735,5.6029c-0.1208,0.2285 -0.2126,0.2863 -0.3651,0.6015c-0.5672,1.1713 -0.9584,2.2547 -2.3301,3.2741c-1.9125,1.4213 -5.2013,2.4865 -7.4942,1.5066c-2.0067,-0.8572 -3.0396,-1.3842 -3.9558,-3.456c-0.4161,-0.9414 -0.3061,-2.1796 -0.5559,-2.9033c-0.1717,-0.4974 -0.2574,-0.3605 -0.3552,-0.9626c-0.3452,-2.128 -0.0243,-2.446 0.6911,-3.8778c0.7498,-1.5001 2.2604,-2.1413 3.6153,-2.9733c0.9777,-0.5998 2.9529,-0.5967 4.0598,-0.3693c2.5597,0.5255 4.6245,2.6753 4.6245,0.1596" fill-rule="evenodd" id="path84"></path><path d="m14.36168,698.26443l0.138,-2.4973c0.1874,-1.9117 -0.4184,-1.785 2.168,-1.785c1.2617,0 1.6469,0.5769 1.6469,1.8119c0,3.5201 0.2492,22.7171 -0.3294,25.2l-3.1532,-1.7878c-0.3634,-0.4034 -0.3153,-0.6222 -0.315,-1.3323c0.0006,-2.1985 0.009,-4.3985 0.009,-6.5976c0.0003,-2.2638 -0.1647,-4.0632 -0.1647,-6.4233l0,-6.5886l0.0004,0z" fill-rule="evenodd" id="path86"></path><path d="m246.34108,709.26543c0,0.8501 -0.0561,1.0862 0.1526,1.7419c0.841,2.6456 0.1944,3.1773 1.8782,6.4879l0.3795,0.5672c0.7969,1.0973 0.5117,1.0151 1.3026,1.2232c0.6148,0.1618 1.106,0.2707 1.6543,0.3982c0.464,-0.3109 1.6157,-1.4575 2.0106,-1.9355c0.3838,-0.4646 0.4371,-0.8438 0.6749,-1.3773l0.8141,-2.185c0.3277,-1.0468 -0.1329,-0.7778 0.3362,-1.7175c0.2775,-0.5561 0.1831,0.0978 0.1443,-0.6896c-0.0697,-1.4074 -0.1695,-2.759 0.2492,-3.8291c0.4169,-1.0664 0.0275,-0.3662 -0.2245,-1.4315c-0.2314,-0.9782 0.2505,-0.559 -0.2152,-1.5148l-0.6545,-3.4512c-0.3912,-2.3732 -0.5355,-2.3156 -1.7569,-3.2944c-1.4312,-1.1463 -3.1017,-1.4409 -4.4209,-0.0856c-0.6478,0.6653 -1.1109,0.8971 -1.4426,1.8726c-1.1098,3.2643 -1.1976,4.9422 -1.1976,8.2734l0.2035,0.9057c0.006,0.004 0.0488,0.0201 0.0539,0.0227c0.005,0.003 0.0416,0.007 0.0583,0.0187zm12.3126,1.5409l0,-7.3403c-0.015,-0.2407 -0.009,-0.1545 -0.0873,-0.4278c-0.0144,-0.0501 -0.0706,-0.18 -0.0864,-0.2287c-0.4692,-1.427 -1.2677,-4.8555 -2.3908,-5.8178c-0.2942,-0.2523 -0.4635,-0.2631 -0.7719,-0.491c-2.353,-1.7379 -5.9366,-2.0489 -8.2831,-0.2753c-1.239,0.9366 -2.0024,2.7635 -2.3777,4.252c-0.5627,2.2292 -0.625,7.9625 -0.3407,10.6557l0.4371,2.7219c0.1899,1.5837 0.2429,0.5533 0.4847,1.5638c0.4048,1.6929 0.9272,2.1796 0.9457,3.0022c0.4203,0.0366 0.2834,0.0689 0.3534,0.1375l1.2898,2.0075c0.1582,0.214 0.3183,0.4136 0.5,0.6052c0.487,0.5133 1.2476,0.8804 2.1186,0.8804c4.1174,0 2.2989,-0.3716 4.8062,-2.2975l1.6673,-2.2787c1.9316,-3.329 0.4794,-3.2913 1.5112,-4.9609c0.231,-0.3742 0.1193,0.1652 0.2228,-0.5667l0.001,-1.1415l0.0001,0z" fill-rule="evenodd" id="path88"></path><path d="m229.54958,721.26253c0.1936,-0.7257 0.883,-1.012 1.2625,-1.5787c0.4312,0.1004 0.8297,0.2342 1.2521,0.3371c2.7085,0.6593 1.2356,1.2328 3.5433,0.5122c0.7132,-0.2225 1.7756,-0.7634 2.107,-1.3663c3.0484,-5.546 -3.015,-11.4593 -6.0897,-15.2918c-0.32,-0.3988 -0.6066,-0.5479 -0.8878,-1.0063c-0.2461,-0.4014 -0.001,-0.1525 -0.3594,-0.5876c-1.5455,-1.8768 -1.5537,-1.4304 -2.9384,-4.0073c-0.2954,-0.5497 -0.2705,-1.0151 -0.4153,-1.6368c0.828,-0.0688 0.1448,-0.0323 0.7435,-0.2032l8.574,-0.5817c1.3538,0.005 2.0443,-0.411 3.9345,0.003c0.5048,0.1106 0.4059,0.0403 0.718,0.3873c0.7446,0.8291 0.4195,2.4468 -0.237,2.4468c-2.8474,0 -2.9356,-0.5729 -3.992,-0.5142c-1.4273,0.0797 -2.1787,-0.006 -3.8393,0.26c-0.4215,0.0674 -0.8359,0.1862 -1.1922,0.2281c-0.6492,0.0763 -0.7127,0.0618 -1.2368,0.184c0.3277,1.4074 1.5157,1.7093 2.7179,3.2803c0.002,0.002 0.1876,0.2211 0.2182,0.2554c0.1885,0.2109 0.0383,0.01 0.2299,0.2435c0.5414,0.6602 0.0179,0.4147 0.9587,1.0936c0.474,0.3421 0.3093,0.2973 0.661,0.7597l4.114,5.3572c1.4641,2.4857 2.512,5.4354 1.8399,8.5898c-0.1165,0.5476 -0.0629,0.2747 -0.178,0.6114c-0.2049,0.5995 -0.4895,1.2716 -0.9731,1.7102c-0.5865,0.532 -2.5991,1.5207 -3.3812,1.828c-0.82,0.322 -1.5845,0.5193 -2.3096,0.5803l-0.9409,0c-1.0386,-0.0924 -2.0058,-0.5009 -2.9559,-1.2637c-0.383,-0.3076 -0.4607,-0.5003 -0.9479,-0.6304" fill-rule="evenodd" id="path90"></path><path d="m74.97688,691.90063l-0.1276,-5.9967l-1.8238,3.2809l0.0836,4.583l16.6406,0l-0.1698,-24.2742l-3.0796,-0.1698l-1.5443,2.037l2.9259,0l-0.1718,20.389l-12.7332,0.1508z" fill-rule="evenodd" id="path92" stroke-miterlimit="22.92558" stroke-width="0.5669"></path>
 <path d="m196.25918,720.05153l0.1276,5.9967l1.8238,-3.2808l-0.0837,-4.5831l-16.6407,0l0.1698,24.2742l3.0798,0.1698l1.544,-2.037l-2.9256,0l0.1718,-20.389l12.7332,-0.1508z" fill-rule="evenodd" id="path106" stroke-miterlimit="22.92558" stroke-width="0.5669"></path>
 <path d="M 176.111 720.409 L 176.146 740.739 L 178.083 740.813 L 178.186 718.297 L 169.397 718.421 L 169.567 742.696 L 178.086 742.801 L 178.084 740.838 L 171.265 740.828 L 171.437 720.439 L 176.111 720.409 Z" fill-rule="evenodd" id="path106b" stroke-miterlimit="22.92558" stroke-width="0.5669"></path>
<path d="M 163.614 720.502 L 163.649 740.832 L 165.586 740.906 L 165.689 718.39 L 156.9 718.514 L 157.07 742.789 L 165.589 742.894 L 165.587 740.931 L 158.768 740.921 L 158.94 720.532 L 163.614 720.502 Z" fill-rule="evenodd" id="path106c" stroke-miterlimit="22.92558" stroke-width="0.5669"></path>
<path d="M 150.006 720.502 L 150.041 740.832 L 151.978 740.906 L 152.081 718.39 L 143.292 718.514 L 143.462 742.789 L 151.981 742.894 L 151.979 740.931 L 145.16 740.921 L 145.332 720.532 L 150.006 720.502 Z" fill-rule="evenodd" id="path106d" stroke-miterlimit="22.92558" stroke-width="0.5669"></path>
<path d="M 125.844 671.436 L 125.879 691.766 L 127.816 691.84 L 127.919 669.324 L 119.13 669.448 L 119.3 693.723 L 127.819 693.828 L 127.817 691.865 L 120.998 691.855 L 121.17 671.466 L 125.844 671.436 Z" fill-rule="evenodd" id="path106e" stroke-miterlimit="22.92558" stroke-width="0.5669"></path>
<path d="M 112.236 671.376 L 112.271 691.706 L 114.208 691.78 L 114.311 669.264 L 105.522 669.388 L 105.692 693.663 L 114.211 693.768 L 114.209 691.805 L 107.39 691.795 L 107.562 671.406 L 112.236 671.376 Z" fill-rule="evenodd" id="path106f" stroke-miterlimit="22.92558" stroke-width="0.5669"></path>
<path d="M 99.924 671.376 L 99.959 691.706 L 101.896 691.78 L 101.999 669.264 L 93.21 669.388 L 93.38 693.663 L 101.899 693.768 L 101.897 691.805 L 95.078 691.795 L 95.25 671.406 L 99.924 671.376 Z" fill-rule="evenodd" id="path106g" stroke-miterlimit="22.92558" stroke-width="0.5669"></path>
 <g id="g120" transform="translate(-134.25 411) scale(0.63384 0.63384)"><path d="m383.51,473.1267l-12.2814,0.0729l2.1328,43.4744l-27.089,-0.6968l0,6.4273l27.7089,-0.8192l-0.769,19.6344l8.6544,-0.1726l-1.1673,-19.1894l27.4023,0.271l-0.0791,-6.821l-27.3458,1.2007l2.8332,-43.3817z" fill="none" id="path122" stroke-miterlimit="22.92558" stroke-width="0.1182"></path></g><path d="m108.83218,710.88453l-7.7842,0.0462l1.3518,27.5556l-17.17,-0.4416l0,4.0739l17.5629,-0.5193l-0.4876,12.445l5.4857,-0.1094l-0.7399,-12.1629l17.3685,0.1717l-0.0502,-4.3234l-17.3327,0.7611l1.7957,-27.4969z" fill-rule="evenodd" id="path124"></path><g id="g126" transform="translate(-134.25 411) scale(0.63384 0.63384)"><path d="m477.1517,390.8058l-12.2811,0.0728l2.1327,43.475l-27.089,-0.6973l0,6.4275l27.709,-0.8195l-0.7693,19.6345l8.6547,-0.1721l-1.1673,-19.1899l27.4019,0.2715l-0.079,-6.8216l-27.3459,1.2008l2.8333,-43.3817z" fill="none" id="path128" stroke-miterlimit="22.92558" stroke-width="0.1182"></path></g><path d="m168.18568,658.70663l-7.7842,0.0463l1.3518,27.5558l-17.17,-0.4419l0,4.074l17.5629,-0.5194l-0.4875,12.445l5.4856,-0.1091l-0.7399,-12.1632l17.3685,0.172l-0.0502,-4.3236l-17.3327,0.7611l1.7957,-27.497z" fill-rule="evenodd" id="path130"></path><g id="g132" transform="translate(-134.25 411) scale(0.98602 0.98602)"><path d="m273.6235,388.2645c48.8699,0 88.4869,-39.6079 88.4869,-88.467c0,-48.8591 -39.617,-88.4676 -88.4869,-88.4676c-48.8704,0 -88.4874,39.6085 -88.4874,88.4676c0,48.8591 39.617,88.467 88.4874,88.467z" fill="none" id="path134" stroke-miterlimit="22.92558" stroke-width="3.7993"></path></g><g id="g136" transform="translate(-134.25 411) scale(0.98602 0.98602)">
 
 <path d="m272.9475,432.2279c73.0513,0 132.2713,-59.2197 132.2713,-132.2714c0,-73.0516 -59.22,-132.2713 -132.2713,-132.2713c-73.0517,0 -132.2714,59.2197 -132.2714,132.2713c0,73.0517 59.2197,132.2714 132.2714,132.2714z" fill="none" id="path138" stroke-miterlimit="22.92558" stroke-width="3.5331"></path>
 
 <!-- <path d="M 133.557 -706.763 m -133.003 0 a 133.003 133.453 0 1 0 266.006 0 a 133.003 133.453 0 1 0 -266.006 0 Z M 133.557 -706.763 m -128.922 0 a 128.922 129.787 0 0 1 257.844 0 a 128.922 129.787 0 0 1 -257.844 0 Z" data-bx-shape="ring 133.557 -706.763 128.922 129.787 133.003 133.453 1@1999b99a" style="stroke: none; fill: rgb(255, 0, 0);" transform="matrix(1, 0, 0, -1, 0, 0)"><bx-title>outerRing</bx-title></path> -->
 
 </g></g>
 </g></g>
</svg>
